HIERARCHY
ROOT Hips
{
	OFFSET -14.64140 90.27770 -84.91600
	CHANNELS 6 Xposition Yposition Zposition Zrotation Xrotation Yrotation
	JOINT Spine
	{
		OFFSET 0.00000 13.20850 -1.60436
		CHANNELS 3 Zrotation Xrotation Yrotation
		JOINT Spine1
		{
			OFFSET 0.00000 8.61716 0.00000
			CHANNELS 3 Zrotation Xrotation Yrotation
			JOINT Spine2
			{
				OFFSET 0.00000 8.61717 0.00000
				CHANNELS 3 Zrotation Xrotation Yrotation
				JOINT Spine3
				{
					OFFSET 0.00000 8.61717 0.00000
					CHANNELS 3 Zrotation Xrotation Yrotation
					JOINT Neck
					{
						OFFSET 0.00000 11.07920 1.10792
						CHANNELS 3 Zrotation Xrotation Yrotation
						JOINT Neck1
						{
							OFFSET 0.00000 7.08032 0.00000
							CHANNELS 3 Zrotation Xrotation Yrotation
							JOINT Head
							{
								OFFSET 0.00000 7.08031 0.00000
								CHANNELS 3 Zrotation Xrotation Yrotation
								End site
								{
									OFFSET 0.00000 0.00000 0.00000
								}
							}
						}
					}
					JOINT RightShoulder
					{
						OFFSET -0.01000 7.91373 5.19711
						CHANNELS 3 Zrotation Xrotation Yrotation
						JOINT RightArm
						{
							OFFSET -18.41580 0.00000 0.00000
							CHANNELS 3 Zrotation Xrotation Yrotation
							JOINT RightForeArm
							{
								OFFSET -29.11090 0.00000 0.00000
								CHANNELS 3 Zrotation Xrotation Yrotation
								JOINT RightHand
								{
									OFFSET -24.65040 0.00000 0.00000
									CHANNELS 3 Zrotation Xrotation Yrotation
									JOINT RightHandThumb1
									{
										OFFSET -5.35114 -0.85590 3.97906
										CHANNELS 3 Zrotation Xrotation Yrotation
										JOINT RightHandThumb2
										{
											OFFSET -4.52789 0.00000 0.00000
											CHANNELS 3 Zrotation Xrotation Yrotation
											JOINT RightHandThumb3
											{
												OFFSET -2.46976 0.00000 0.00000
												CHANNELS 3 Zrotation Xrotation Yrotation
												End site
												{
													OFFSET 0.00000 0.00000 0.00000
												}
											}
										}
									}
									JOINT RightHandIndex1
									{
										OFFSET -14.26970 0.00000 2.88139
										CHANNELS 3 Zrotation Xrotation Yrotation
										JOINT RightHandIndex2
										{
											OFFSET -5.48836 0.00000 0.00000
											CHANNELS 3 Zrotation Xrotation Yrotation
											JOINT RightHandIndex3
											{
												OFFSET -3.01859 0.00000 0.00000
												CHANNELS 3 Zrotation Xrotation Yrotation
												End site
												{
													OFFSET 0.00000 0.00000 0.00000
												}
											}
										}
									}
									JOINT RightHandMiddle1
									{
										OFFSET -14.26970 0.00000 -0.09147
										CHANNELS 3 Zrotation Xrotation Yrotation
										JOINT RightHandMiddle2
										{
											OFFSET -6.17441 0.00000 0.00000
											CHANNELS 3 Zrotation Xrotation Yrotation
											JOINT RightHandMiddle3
											{
												OFFSET -3.56743 0.00000 0.00000
												CHANNELS 3 Zrotation Xrotation Yrotation
												End site
												{
													OFFSET 0.00000 0.00000 0.00000
												}
											}
										}
									}
									JOINT RightHandRing1
									{
										OFFSET -12.69180 0.00000 -3.06433
										CHANNELS 3 Zrotation Xrotation Yrotation
										JOINT RightHandRing2
										{
											OFFSET -5.62556 0.00000 0.00000
											CHANNELS 3 Zrotation Xrotation Yrotation
											JOINT RightHandRing3
											{
												OFFSET -3.56744 0.00000 0.00000
												CHANNELS 3 Zrotation Xrotation Yrotation
												End site
												{
													OFFSET 0.00000 0.00000 0.00000
												}
											}
										}
									}
									JOINT RightHandPinky1
									{
										OFFSET -11.11390 0.00000 -6.03719
										CHANNELS 3 Zrotation Xrotation Yrotation
										JOINT RightHandPinky2
										{
											OFFSET -4.52789 0.00000 0.00000
											CHANNELS 3 Zrotation Xrotation Yrotation
											JOINT RightHandPinky3
											{
												OFFSET -2.46976 0.00000 0.00000
												CHANNELS 3 Zrotation Xrotation Yrotation
												End site
												{
													OFFSET 0.00000 0.00000 0.00000
												}
											}
										}
									}
								}
							}
						}
					}
					JOINT LeftShoulder
					{
						OFFSET 0.01000 7.91373 5.19711
						CHANNELS 3 Zrotation Xrotation Yrotation
						JOINT LeftArm
						{
							OFFSET 18.41580 0.00000 0.00000
							CHANNELS 3 Zrotation Xrotation Yrotation
							JOINT LeftForeArm
							{
								OFFSET 29.11090 0.00000 0.00000
								CHANNELS 3 Zrotation Xrotation Yrotation
								JOINT LeftHand
								{
									OFFSET 24.65040 0.00000 0.00000
									CHANNELS 3 Zrotation Xrotation Yrotation
									JOINT LeftHandThumb1
									{
										OFFSET 5.35114 -0.85590 3.97906
										CHANNELS 3 Zrotation Xrotation Yrotation
										JOINT LeftHandThumb2
										{
											OFFSET 4.52789 0.00000 0.00000
											CHANNELS 3 Zrotation Xrotation Yrotation
											JOINT LeftHandThumb3
											{
												OFFSET 2.46977 0.00000 0.00000
												CHANNELS 3 Zrotation Xrotation Yrotation
												End site
												{
													OFFSET 0.00000 0.00000 0.00000
												}
											}
										}
									}
									JOINT LeftHandIndex1
									{
										OFFSET 14.26970 0.00000 2.88139
										CHANNELS 3 Zrotation Xrotation Yrotation
										JOINT LeftHandIndex2
										{
											OFFSET 5.48836 0.00000 0.00000
											CHANNELS 3 Zrotation Xrotation Yrotation
											JOINT LeftHandIndex3
											{
												OFFSET 3.01859 0.00000 0.00000
												CHANNELS 3 Zrotation Xrotation Yrotation
												End site
												{
													OFFSET 0.00000 0.00000 0.00000
												}
											}
										}
									}
									JOINT LeftHandMiddle1
									{
										OFFSET 14.26970 0.00000 -0.09147
										CHANNELS 3 Zrotation Xrotation Yrotation
										JOINT LeftHandMiddle2
										{
											OFFSET 6.17440 0.00000 0.00000
											CHANNELS 3 Zrotation Xrotation Yrotation
											JOINT LeftHandMiddle3
											{
												OFFSET 3.56744 0.00000 0.00000
												CHANNELS 3 Zrotation Xrotation Yrotation
												End site
												{
													OFFSET 0.00000 0.00000 0.00000
												}
											}
										}
									}
									JOINT LeftHandRing1
									{
										OFFSET 12.69180 0.00000 -3.06433
										CHANNELS 3 Zrotation Xrotation Yrotation
										JOINT LeftHandRing2
										{
											OFFSET 5.62556 0.00000 0.00000
											CHANNELS 3 Zrotation Xrotation Yrotation
											JOINT LeftHandRing3
											{
												OFFSET 3.56744 0.00000 0.00000
												CHANNELS 3 Zrotation Xrotation Yrotation
												End site
												{
													OFFSET 0.00000 0.00000 0.00000
												}
											}
										}
									}
									JOINT LeftHandPinky1
									{
										OFFSET 11.11390 0.00000 -6.03719
										CHANNELS 3 Zrotation Xrotation Yrotation
										JOINT LeftHandPinky2
										{
											OFFSET 4.52789 0.00000 0.00000
											CHANNELS 3 Zrotation Xrotation Yrotation
											JOINT LeftHandPinky3
											{
												OFFSET 2.46976 0.00000 0.00000
												CHANNELS 3 Zrotation Xrotation Yrotation
												End site
												{
													OFFSET 0.00000 0.00000 0.00000
												}
											}
										}
									}
								}
							}
						}
					}
					JOINT pCube4
					{
						OFFSET 0.00000 10.91090 1.10792
						CHANNELS 3 Zrotation Xrotation Yrotation
						End site
						{
							OFFSET 0.00000 0.00000 0.00000
						}
					}
				}
			}
		}
	}
	JOINT RightUpLeg
	{
		OFFSET -9.98441 0.00000 0.00000
		CHANNELS 3 Zrotation Xrotation Yrotation
		JOINT RightLeg
		{
			OFFSET 0.00000 -42.11790 0.00000
			CHANNELS 3 Zrotation Xrotation Yrotation
			JOINT RightFoot
			{
				OFFSET 0.00000 -45.00020 -0.00001
				CHANNELS 3 Zrotation Xrotation Yrotation
				JOINT RightForeFoot
				{
					OFFSET 0.00000 -3.74820 0.00000
					CHANNELS 3 Zrotation Xrotation Yrotation
					JOINT RightToeBase
					{
						OFFSET 0.00000 0.06325 14.43120
						CHANNELS 3 Zrotation Xrotation Yrotation
						End site
						{
							OFFSET 0.00000 0.00000 0.00000
						}
					}
				}
			}
		}
	}
	JOINT LeftUpLeg
	{
		OFFSET 9.98441 0.00000 0.00000
		CHANNELS 3 Zrotation Xrotation Yrotation
		JOINT LeftLeg
		{
			OFFSET 0.00000 -42.11800 0.00000
			CHANNELS 3 Zrotation Xrotation Yrotation
			JOINT LeftFoot
			{
				OFFSET 0.00000 -45.00070 0.00000
				CHANNELS 3 Zrotation Xrotation Yrotation
				JOINT LeftForeFoot
				{
					OFFSET 0.00000 -3.74824 0.00000
					CHANNELS 3 Zrotation Xrotation Yrotation
					JOINT LeftToeBase
					{
						OFFSET 0.00000 0.06325 14.43110
						CHANNELS 3 Zrotation Xrotation Yrotation
						End site
						{
							OFFSET 0.00000 0.00000 0.00000
						}
					}
				}
			}
		}
	}
}
MOTION
Frames: 4
Frame Time: 0.050000
-0.03888732606990536 -0.030240392599087285 -0.026043759875612922 -0.03423882591313347 -0.024942963153440686 -0.011271685950874412 -1.9658846693525474 1.8244540433967993 -0.8595792970932178 -1.028654706351938 3.996597471391938 0.3587912903084137 -1.2030245029912083 -1.4464899511569012 -1.2428632255921124 0.7250125293136012 0.5968408510693021 -0.8738527776699309 0.18920460159579572 12.2814216899127 -1.5792177291180927 -0.08491687627680736 -1.1187087161932359 -5.307681418704995 0.499599691786557 -16.93376277915058 -0.43080169380152217 -4.089436492223401 1.395688841228567 -14.915922234887333 71.0777758926257 27.38354811905465 3.6391653096566383 -0.9486210054463813 5.3311720714792346 39.397774417884605 22.81855206781434 -0.11313447297019352 -5.472807113452689 4.556508526491973 -0.15876021513849525 -1.5740449356381976 -0.01906561076214444 -0.033095032722462836 -56.27915463344167 -0.01394489444782707 0.00792461462792715 -56.28274612770377 -38.73853419664268 -0.03708132806298425 0.030065506916496877 0.030640990835832466 -0.031188747913886455 0.01254218171240886 -0.010438111864763486 0.034794354062154545 -0.02729798646306979 -36.71543643165504 -0.00664765017943258 0.039685221477109504 -0.033889772915690036 0.04389489405687029 -0.04762670157890132 -0.04106953192506386 -0.00984193114045607 0.048435893210733216 -19.71433103506378 0.019978779540349587 0.02646645203163947 -0.00343278801357445 -0.04396711535667323 0.028623718460295766 -0.04554070883337424 0.04589608658761338 -0.03616211258694022 24.01436823845191 0.036932622423807945 0.009127416255144391 28.84325203609947 0.048953467358043075 0.041499812419213924 28.884139538467064 0.007523461958785312 0.02482278852720144 4.882332438013204 1.2371188595361982 12.956656477511414 -68.08032958133492 30.202798234938136 -9.113903208549939 -0.3002904970676947 -2.396490532995734 -55.251008332475074 -19.0195411945104 -7.677183273461798 7.832347679278779 -0.4964598870319351 0.05961377344572863 -8.099888506102749 0.012417145530399165 -0.026751317150695456 44.53628357606163 -0.02791884943991499 -0.016736467688664172 44.52884520225391 12.430866855136166 -0.017079622117754777 -0.042704975158860695 -0.026876486147236558 0.028170783599549516 -0.012828027152790094 -0.0210752801047317 0.03464477116751722 0.013464073064456735 11.116071362937177 -0.04078226037753265 0.04592893394887351 0.03871744335615962 -0.007848050092227893 0.016604383182469887 0.03432782964164488 0.018102941795210478 -0.018740469877507833 4.73597691943852 -0.007849134652690165 -0.005204576648186072 -0.03713579859165934 -0.010877433100707112 0.00709825264063227 -0.008557300521673097 -0.02905019454638304 0.01345233075852819 -5.5763343952020445 -0.007734477861263616 0.036370478023885426 -6.715657986020606 0.006835912701926879 -0.029910018559154032 -6.746517760149724 -0.02772085855184894 0.04491170407494105 0.04665840660518692 0.04588106941297198 0.007867147417655861 8.02081694814614 3.4606206864331774 -19.173294320838238 0.020441194346921036 10.38228943180739 0.053602861195771595 -5.589524295125626 -15.677577960098922 3.1597354754648186 0.033217686240670265 0.025681448077850905 0.030219572120388467 0.02973511856125382 4.700059504255272 0.030711922687743445 12.417687952350821 -8.195393832284749 6.8967905108305985 8.915479287473633e-05 46.36932177009453 0.010784071151006875 -4.340572829684072 -14.733025440647937 -3.8852527701789885 -0.03885692539256595 0.017363391598524146 0.02886838555537244 0.013672800739710927 -10.762812619172916 -0.04462464531367105 
-0.00453969870387432 -0.0031293597909670557 -0.03018245965813965 0.0171365672183471 -0.0006945466281239494 -0.0013307519399196033 -1.8763992705675556 1.785324226707019 -0.9401146198526155 -1.0090415203168452 3.95393380310392 0.3843864778664196 -1.1643180932614128 -1.4064312288348753 -1.1693729295960789 0.7526597142948482 0.635106896440682 -0.8266883655165904 0.14740611540184395 12.24146267322077 -1.4737515966241048 -0.13206795073063457 -0.9638652608598632 -5.067953476427801 0.482440121816575 -16.677860368858056 -0.41292099357688533 -4.016268131252532 1.4233428024135448 -15.066864880161937 70.77201772237349 26.75066978748904 2.926367978348376 -0.842092213500323 4.825666163200242 39.41046925002217 22.514802098842846 -0.11025838721385034 -5.333472870272292 4.5675862189996135 -0.16243996327474583 -1.583481724775027 0.015263569992989891 -0.0006662175340424888 -56.253022863419154 -0.03144283445887398 0.031566608870906426 -56.218325742032555 -38.776739020184536 -0.017785870266477925 -0.030760951863690662 -0.04554059425809626 -0.005028984989097636 0.021700819030905066 0.04492930930539961 0.0022115849820052314 0.01677922609871189 -36.71468489590396 -0.04805366162931542 -0.04879797987227981 0.04680079186481223 0.025583662741418392 0.03204931395395291 -0.03320765168860156 0.04656940782074633 0.0227660190300616 -19.709021296039065 -0.030449806535630588 0.03502554451720022 -0.04899273543722813 -0.039074107333492376 0.032335501282354906 -0.004729363112421471 0.001825890081606195 -0.034639061429988995 24.0301940811377 -0.017152706530359944 0.012855032166101945 28.827490968974757 0.0029166787401887603 -0.03731561037323347 28.82362805770491 -0.019588689053190448 0.038016124687371165 4.715126776425104 1.193840062803411 13.001595975926413 -68.1008479955606 30.399504574525917 -8.490560597727361 2.457124448208345 -4.721819517407681 -53.94107218476032 -18.30242294569291 -6.490179201298032 7.039790210221396 -0.44410987255515877 0.046769063338717186 -8.077249052481731 0.00655812154684147 -0.00863774167072872 44.61237910194082 -0.004962885242988318 -0.014047584934774714 44.579719955707745 12.42224221748675 0.013838945340692565 -0.009223833596830605 -0.030258804489284787 -0.006116610415002143 0.030990127079669277 0.01842148735195307 -0.001888900473434893 -0.03673773222040124 11.061955920123037 -0.043478165890057305 -0.02776461995746052 -0.03512815815025621 0.034465619849666417 0.017209391780152555 0.02292162349119402 0.04406172603447257 0.026334138409014225 4.765791677983676 0.020949359521454554 -0.026272755457859415 0.007836232360180087 -0.028808617096769726 -0.008466185979219377 0.048207260384120015 -0.015002708282227422 -0.02656541086663429 -5.613021862376652 -0.0431113184724263 -0.035309490353490056 -6.715697844353881 0.04168743898406064 0.03894051706754936 -6.738347209486022 -0.013187147149585918 0.003947449000462933 -0.04341173989573073 -0.0030330946263069565 -0.036283529904335594 8.078144864261978 3.4788861917579066 -19.194378704176863 0.019420651929231016 10.41814864481394 0.022281737280818566 -5.622162767959736 -15.661481082517543 3.182486760397729 -0.018406401731688723 -0.01673476030092976 -0.0022881677201195207 -0.011809023056542616 4.676798144668467 0.006592369101340037 12.447966069762469 -8.249312377702067 6.853676056091154 0.02505771687657385 46.35280831915582 -0.0036909002925344233 -4.316957946862203 -14.752747140547752 -3.852624711938017 0.0147288137641712 -0.005305583605520263 0.005081050391385278 -0.02498415036552312 -10.737264935072584 0.01791316664530217 
-0.04065871896002267 0.02994270742036348 0.04936701172647245 0.03646055539909379 0.018408523295727716 -0.027560716958973108 -1.8094299230203352 1.6693456009775358 -0.9419166209672988 -1.0035793888780744 3.949487736257288 0.37236557124106046 -1.1565417338499047 -1.4341607697483598 -1.1484320741677991 0.7603509076934906 0.5850687371188018 -0.8228932278959964 0.21279322566825504 12.13225595543429 -1.561167039201989 -0.05443327245395327 -1.0259905996171557 -5.152955079482298 0.501855328644351 -16.588909763155982 -0.3861646678144633 -3.913885518179183 1.3665081169562199 -15.143327055122569 70.8643982270925 26.469179057828335 2.3254159908736884 -0.816333029739248 4.484602684457015 39.38531968396324 22.294610025617658 -0.11684958598240357 -5.117446581373565 4.483037125184043 -0.11656271394390777 -1.6183409483772935 0.01662541485223889 0.028925237746880036 -56.22408806047524 0.00849807813847397 0.008098202068142641 -56.21533107133674 -38.80712735397402 0.008650136255671499 -0.018820010834004676 -0.03814015939397473 -0.023044417879952494 -0.004763712117554056 0.02909871018551408 -0.043009472874194044 0.0060428402673795055 -36.7035350580807 -0.025230109682548286 -0.0070821239030679954 0.022914656793258024 -0.00018754983655875094 0.0020982289884640386 0.010539098620008005 -0.0418558124178212 -0.0008525244180145476 -19.72206095884482 -0.04212064766821938 -0.0024479837174063595 -0.030203481051300635 -0.015084266703189965 -0.0326881510965472 0.02375389246954127 0.023234038798221043 -0.03073446405438861 24.043613646072426 -0.006427101985637034 -0.029089296587533918 28.82580421961304 0.00011614601372578241 0.027246675882199502 28.886353404480406 0.021439867554610772 -0.04313917410729217 4.4788776604405784 1.1381472220991151 13.048388524252934 -68.51901915746292 30.334599440873323 -7.268523707346131 3.8831551674711293 -5.677709773474737 -51.482202835703205 -17.927254800806963 -5.2054677329200425 6.187609547507544 -0.5152519152577011 0.04330987035971051 -8.120262342953177 -0.036959001847773704 -0.033709493822172525 44.57166147126702 0.01974957160752182 0.04759867934583599 44.55576080411785 12.460390804129144 -0.030403378104541367 0.04533926094691035 -0.04583916847120316 -0.009363399607388592 -0.004306892954468618 -0.001040396672875124 0.04720178375377366 0.037313087630502166 11.07512471413061 0.035279760116904535 -0.02296331382571767 -0.03775502813950728 -0.0027465978684487417 0.03360511911663477 0.03811872871449333 0.0009111062968248006 0.006517261317643271 4.768953887870041 0.009431783976463525 0.04435725998617713 0.0008523177621593352 -0.03467635543460858 -0.017153014683637263 -0.008026615944313574 -0.007293465498577386 0.04515222569223993 -5.5733656197670705 0.020723071459127773 0.016477056027363046 -6.745542376857359 0.020829079145330893 0.03638949005500073 -6.72185594392865 -0.041805933750130024 0.034039755528798905 0.046594202467759846 -0.009911522988994788 0.04679580085773723 8.070153036864573 3.4805595033818455 -19.23512482288918 0.0020273882856675775 10.43073488542934 0.05899871264495758 -5.601756627112006 -15.671152025480634 3.1639483179844117 -0.025433270448357595 0.02641210931308346 -0.002641693471739862 -0.03220161159635638 4.744111303972119 0.0034990249428038206 12.456652092694682 -8.22908612069002 6.888876118153683 0.03592081140688432 46.36451020104513 -0.026202838886068613 -4.320897796639886 -14.746039632062478 -3.847836331733531 -0.043941461597996424 0.049704037687446925 0.004772326818313499 0.033466390645486795 -10.727403558310973 0.007920193980216438 
-0.01856761361233549 0.03263014467420237 -0.02229986501748743 -0.0480831980529124 -0.027577354071272715 0.033056987315684884 -1.879001611724514 1.6712981231819735 -0.925458131371108 -1.0228917432611726 3.953384568321585 0.36788685948590255 -1.1758874206756649 -1.360922694395001 -1.0970725646733315 0.7435627122096904 0.5875383585875116 -0.8341261073355127 0.22501768516565665 11.967415206737147 -1.56958591857501 -0.10040455274591124 -1.0092627929535916 -5.274207355608004 0.4858282645716963 -16.62813442735637 -0.43606425082825756 -3.769889274080187 1.325723103952165 -15.22926820517921 71.20709499727514 26.437385586656674 1.8765439068606093 -1.0429183293794404 4.063905400209946 39.51212619670979 22.00251326640734 -0.09485900931960758 -4.98233525685369 4.57451774792988 -0.13427829705372077 -1.5763832729432692 0.011088637755268993 0.03237749340482222 -56.27092309983806 0.01920773272265328 0.021136415516971846 -56.2714890074881 -38.7358663266326 0.024834581614096244 -0.013013685087160337 0.006612069403942605 0.0020184972163068975 0.01064253897074441 -0.006764637165726573 0.012987882061495953 -0.011932466568818655 -36.73277968906732 -0.012288938511621536 -0.02028314283972572 -0.0018347199838456211 0.003839803503158013 0.017069950132553465 -0.0113920631117357 -0.019173035233703405 0.02818162316306187 -19.777818006366424 -0.04931572463132788 0.0013243555851518735 0.046968667757705695 -0.007556832927217002 -0.04053901225791107 -0.03300143806010293 -0.008539629819211648 -0.02776737230701205 24.073540887951506 -0.048135306848245206 0.015247857831663512 28.869804161217786 -0.004152438685878865 0.00510910535777212 28.902027471675925 0.020298658761485466 -0.027288072674911634 4.087001865750538 1.060548598911465 13.159682178754785 -69.32273681013606 30.063485711763253 -5.76162225232753 3.9587814398567667 -5.53506869289273 -48.33126317593725 -17.597253022324644 -3.920408560341314 5.250533345384459 -0.44762380177324124 0.07335448062260527 -8.1162724803203 -0.028320148807176638 -0.03724978832321554 44.61131091291504 0.04656709694574043 0.006591267020760804 44.60451494444165 12.44636420955468 0.008543805855525523 -0.004688741687779965 -0.04106918564117853 0.030949624637378804 -0.014665224242569606 -0.03587817721460291 0.024712655677026817 0.03423974227300532 11.128297744955697 0.012068077817508812 0.020279092985013483 0.017737389617543682 -0.012910680413108335 -0.01733078789684647 0.02089447186638618 -0.02993282869441152 0.02031917984940204 4.725793184530989 0.018733817306289226 0.043996173252132176 0.025899473557560303 -0.007123528485542192 -0.016204795499645278 0.033214654019360516 -0.010245958787150245 -0.01055701968811646 -5.6092544222762895 -0.04126761515072278 -0.044025104206025956 -6.7437612882953415 -0.01144970348127402 0.0323429437915844 -6.689296963555205 -0.011921676534639101 -0.013686850929142097 0.031077957200997076 0.020436058375052957 -0.015599092360518856 8.0605290762381 3.491021015845038 -19.255010535682384 0.01181131010168848 10.364297346585232 0.02644326080903864 -5.616789675580296 -15.63655317578044 3.198163112707471 0.018533770221039476 -0.04008691158751713 -0.04038418653204972 0.03711654603591933 4.726995212055852 0.04932886218105551 12.463345088863111 -8.221228136880525 6.875182695765711 0.02543820348159228 46.34933742372461 0.037961957244002205 -4.330474733774197 -14.780461580524868 -3.8618506420827003 -0.02807920544698045 -0.01931965133280003 0.029045925664082473 -0.013499910843971038 -10.788420053860005 -0.017133841487182225 
